<?xml version="1.0" standalone="no"?>
<!DOCTYPE svg PUBLIC "-//W3C//DTD SVG 20010904//EN"
 "http://www.w3.org/TR/2001/REC-SVG-20010904/DTD/svg10.dtd">
<svg version="1.0" xmlns="http://www.w3.org/2000/svg"
 width="200.000000pt" height="200.000000pt" viewBox="0 0 200.000000 200.000000"
 preserveAspectRatio="xMidYMid meet">
<metadata>
Created by potrace 1.11, written by Peter Selinger 2001-2013
</metadata>
<g transform="translate(0.000000,200.000000) scale(0.100000,-0.100000)"
fill="#000000" stroke="none">
<path d="M833 1302 c-13 -2 -23 -10 -23 -18 0 -24 -1 -29 -13 -43 -10 -12 -9
-13 3 -6 12 7 13 6 4 -6 -5 -8 -10 -42 -9 -76 0 -35 -2 -63 -6 -63 -3 0 -4
-18 -2 -40 2 -22 -1 -48 -6 -59 -8 -14 -8 -21 2 -24 8 -4 8 -8 2 -14 -5 -4
-10 -28 -10 -53 1 -25 -2 -49 -4 -55 -3 -5 -4 -25 -2 -43 1 -18 -3 -40 -11
-49 -8 -11 -9 -14 -1 -10 8 5 11 0 10 -13 -1 -11 -5 -20 -9 -20 -4 0 -1 -12 7
-27 15 -28 11 -48 -7 -37 -7 4 -8 2 -4 -5 4 -6 11 -9 16 -6 5 3 18 1 29 -4 28
-15 100 -19 116 -7 8 7 15 38 18 81 3 54 7 69 18 67 11 -3 12 -1 2 9 -18 18
-16 28 5 24 11 -1 16 -9 14 -21 -3 -17 -2 -17 10 -3 7 9 23 19 36 22 19 4 22
2 17 -14 -4 -11 -2 -19 5 -19 6 0 9 4 5 9 -3 6 3 15 14 21 13 7 22 7 26 0 3
-5 12 -10 18 -10 8 0 8 3 -2 9 -9 6 -10 11 -2 15 6 4 11 4 11 0 0 -3 7 -1 15
6 8 6 20 8 26 4 7 -4 9 -3 5 4 -3 6 3 13 14 17 11 4 18 10 15 15 -3 4 1 10 9
13 8 3 26 31 42 63 21 44 29 75 32 138 5 113 -21 170 -98 212 -30 16 -57 19
-175 19 -77 0 -150 -1 -162 -3z m183 -149 c-3 -7 0 -15 6 -19 7 -4 8 -3 4 4
-4 7 -2 12 3 12 6 0 11 -5 11 -12 0 -6 3 -8 6 -5 4 4 1 13 -6 22 -8 9 -9 15
-2 15 6 0 16 -8 21 -17 8 -14 10 -14 11 -3 0 12 2 12 16 -1 17 -18 27 -76 14
-84 -5 -3 -7 -12 -3 -20 3 -9 -1 -23 -8 -32 -12 -14 -12 -15 0 -9 8 6 7 -1 -4
-18 -23 -35 -45 -46 -95 -46 l-40 0 4 63 c2 34 5 84 5 110 1 29 5 46 11 42 6
-3 10 -2 10 2 0 5 9 9 20 9 12 0 19 -5 16 -13z"/>
<path d="M1000 780 c-9 -6 -10 -10 -3 -10 6 0 15 5 18 10 8 12 4 12 -15 0z"/>
<path d="M791 613 c-1 -17 16 -25 25 -12 4 7 3 9 -4 5 -5 -3 -13 0 -15 6 -4 9
-6 10 -6 1z"/>
<path d="M867 595 c3 -8 9 -12 14 -9 12 7 11 11 -5 17 -10 4 -13 1 -9 -8z"/>
</g>
</svg>
